All The Episodes of K (2012 Anime) aka K-Project (Ep 1-13) at 480p Video Quality :)

Please seed after you download.

--------------------------------------------------------------------------------

Cover
------
    
http://img259.imageshack.us/img259/4382/kcursator.jpg

---------------------------------------------------------------------------------

Info
---------------------------------------------------------------------------------

Torrent Statistics
-------------------
      
http://torrent-stats.info/3161/658f8988.png

---------------------------------------------------------------------------------

General
--------

Format                                   : MPEG-4
Format profile                           : Base Media
Codec ID                                 : isom
File size                                : 69.1 MiB
Duration                                 : 24mn 37s
Overall bit rate mode                    : Variable
Overall bit rate                         : 392 Kbps
Encoded date                             : UTC 2012-10-03 20:50:50
Tagged date                              : UTC 2012-10-03 20:50:50


Video
---------------------------------------

ID                                       : 1
Format                                   : AVC
Format/Info                              : Advanced Video Codec
Format profile                           : High@L3.0
Format settings, CABAC                   : Yes
Format settings, ReFrames                : 8 frames
Codec ID                                 : avc1
Codec ID/Info                            : Advanced Video Coding
Duration                                 : 24mn 37s
Bit rate                                 : 324 Kbps
Maximum bit rate                         : 2 121 Kbps
Width                                    : 640 pixels
Height                                   : 360 pixels
Display aspect ratio                     : 16:9
Frame rate mode                          : Constant
Frame rate                               : 23.976 fps
Color space                              : YUV
Chroma subsampling                       : 4:2:0
Bit depth                                : 8 bits
Scan type                                : Progressive
Bits/(Pixel*Frame)                       : 0.059
Stream size                              : 57.1 MiB (83%)
Title                                    : Imported with GPAC 0.4.6-DEV (build 1)
Writing library                          : x264 core 92 r1510 33d382a

Audio
----------------------------------

ID                                       : 2
Format                                   : AAC
Format/Info                              : Advanced Audio Codec
Format profile                           : LC
Codec ID                                 : 40
Duration                                 : 24mn 37s
Bit rate mode                            : Variable
Bit rate                                 : 63.9 Kbps
Maximum bit rate                         : 83.3 Kbps
Channel(s)                               : 2 channels
Channel positions                        : Front: L R
Sampling rate                            : 48.0 KHz
Compression mode                         : Lossy
Stream size                              : 11.3 MiB (16%)


----------------------------------------------------------------------------------

Screenshots
----------------------------------------------------------------------------------
                     
http://img833.imageshack.us/img833/7120/k01y.png
                     
http://img707.imageshack.us/img707/4151/k02c.png
                     
http://img820.imageshack.us/img820/3356/k03.png
                     
http://img89.imageshack.us/img89/4687/k04gdm.png
                     
http://img831.imageshack.us/img831/8499/k05.png
 

----------------------------------------------------------------------------------

Story
----------------------------------------------------------------------------------

Set in a world where history has taken a slightly different course from the one we're familiar with, K follows the story of a young boy whose life is caught in a psychic war between seven kings.

----------------------------------------------------------------------------------

Thank you for downloading. 

Enjoy Watching :)		
--------------------------------------------------------------------------------

Facebook and Email
------------------

Facebook/Cursator (Add .com)

Cursator@ymail.com 

Thank you :)		
							
